# xmcd
# Track frame offsets:
# 150
# 17811
# 33963
# 52967
# 68374
# 83673
# 100025
# 114671
# 137177
# 149565
# 166438
# 187899
# 200926
# 218485
#
# Disc length: 3095 seconds
# Revision: 0
# Processed by: cddbd v1.5.2PL0 Copyright (c) Steve Scherf et al.
# Submitted via: VisiTrax 2.10.2.252 - For more info visit www.synapsa.com
#
DISCID=bf0c150e
DTITLE=H.P. Lange - A Compilation of Roots Blues cd 2
DYEAR=2008
DGENRE=Blues
TTITLE0=Jordan - Keep It clean
TTITLE1=Patton - Some of these days
TTITLE2=Williams - Mellow peaches
TTITLE3=Burnside - Poor black mattie
TTITLE4=Lange - Whiskey, Take me
TTITLE5=Burnside - Jumber on the line
TTITLE6=Johnson - Crossroads blues
TTITLE7=Callicot - France chance
TTITLE8=Trad. - Shotnin´bread
TTITLE9=Estes - Drop down mamma
TTITLE10=Estes - Change sometime
TTITLE11=Trad. - Keep the skillet good and greasy
TTITLE12=Johnson - God don´t never change
TTITLE13=Johnson - Come on in my kitchen
EXTD=
EXTT0=
EXTT1=
EXTT2=
EXTT3=
EXTT4=
EXTT5=
EXTT6=
EXTT7=
EXTT8=
EXTT9=
EXTT10=
EXTT11=
EXTT12=
EXTT13=
PLAYORDER=
